<mxfile host="app.diagrams.net" modified="2020-10-03T10:28:37.766Z" agent="5.0 (X11; Linux x86_64) AppleWebKit/537.36 (KHTML, like Gecko) Chrome/85.0.4183.121 Safari/537.36" etag="7iNpAN5ZXFrUknAXYJUw" version="13.7.7" type="github">
  <diagram id="my5T69vcgsBm1xiMYot3" name="Page-1">
    <mxGraphModel dx="1673" dy="2017" grid="1" gridSize="10" guides="1" tooltips="1" connect="1" arrows="1" fold="1" page="1" pageScale="1" pageWidth="827" pageHeight="1169" math="0" shadow="0">
      <root>
        <mxCell id="0" />
        <mxCell id="1" parent="0" />
        <mxCell id="rmX3EuTgFiDhoVk7WDeN-18" value="" style="rounded=0;whiteSpace=wrap;html=1;fontFamily=Times New Roman;" parent="1" vertex="1">
          <mxGeometry x="270" y="-60" width="1130" height="1620" as="geometry" />
        </mxCell>
        <mxCell id="ejoTcQP1C6wPcJlGT3Gc-2" value="Hệ Thống" style="text;html=1;strokeColor=none;fillColor=none;align=center;verticalAlign=middle;whiteSpace=wrap;rounded=0;fontFamily=Times New Roman;" parent="1" vertex="1">
          <mxGeometry x="790" y="-40" width="120" height="20" as="geometry" />
        </mxCell>
        <mxCell id="ejoTcQP1C6wPcJlGT3Gc-44" style="edgeStyle=none;rounded=0;orthogonalLoop=1;jettySize=auto;html=1;exitX=0.5;exitY=0.5;exitDx=0;exitDy=0;exitPerimeter=0;entryX=0;entryY=0.5;entryDx=0;entryDy=0;endArrow=none;endFill=0;fontFamily=Times New Roman;" parent="1" source="ejoTcQP1C6wPcJlGT3Gc-5" target="ejoTcQP1C6wPcJlGT3Gc-8" edge="1">
          <mxGeometry relative="1" as="geometry" />
        </mxCell>
        <mxCell id="ejoTcQP1C6wPcJlGT3Gc-45" style="edgeStyle=none;rounded=0;orthogonalLoop=1;jettySize=auto;html=1;exitX=0.5;exitY=0.5;exitDx=0;exitDy=0;exitPerimeter=0;entryX=0;entryY=0.5;entryDx=0;entryDy=0;endArrow=none;endFill=0;fontFamily=Times New Roman;" parent="1" source="ejoTcQP1C6wPcJlGT3Gc-5" target="ejoTcQP1C6wPcJlGT3Gc-10" edge="1">
          <mxGeometry relative="1" as="geometry" />
        </mxCell>
        <mxCell id="ejoTcQP1C6wPcJlGT3Gc-5" value="Nhân Viên Bán Hàng" style="shape=umlActor;verticalLabelPosition=bottom;verticalAlign=top;html=1;outlineConnect=0;fontFamily=Times New Roman;" parent="1" vertex="1">
          <mxGeometry x="170" y="760" width="30" height="60" as="geometry" />
        </mxCell>
        <mxCell id="rmX3EuTgFiDhoVk7WDeN-57" style="edgeStyle=orthogonalEdgeStyle;rounded=0;orthogonalLoop=1;jettySize=auto;html=1;exitX=0;exitY=1;exitDx=0;exitDy=0;entryX=0;entryY=0.5;entryDx=0;entryDy=0;dashed=1;startArrow=none;startFill=0;endArrow=classic;endFill=1;fontFamily=Times New Roman;" parent="1" source="ejoTcQP1C6wPcJlGT3Gc-8" target="rmX3EuTgFiDhoVk7WDeN-29" edge="1">
          <mxGeometry relative="1" as="geometry">
            <Array as="points">
              <mxPoint x="300" y="248" />
              <mxPoint x="300" y="990" />
            </Array>
          </mxGeometry>
        </mxCell>
        <mxCell id="rmX3EuTgFiDhoVk7WDeN-76" value="&amp;lt;&amp;lt;include&amp;gt;&amp;gt;" style="edgeLabel;html=1;align=center;verticalAlign=middle;resizable=0;points=[];fontFamily=Times New Roman;" parent="rmX3EuTgFiDhoVk7WDeN-57" vertex="1" connectable="0">
          <mxGeometry x="0.6133" y="-3" relative="1" as="geometry">
            <mxPoint as="offset" />
          </mxGeometry>
        </mxCell>
        <mxCell id="ejoTcQP1C6wPcJlGT3Gc-8" value="&lt;font style=&quot;font-size: 18px&quot;&gt;Quản lý bán thuôc&lt;/font&gt;" style="ellipse;whiteSpace=wrap;html=1;fillColor=#ffe6cc;strokeColor=#d79b00;fontFamily=Times New Roman;" parent="1" vertex="1">
          <mxGeometry x="294" y="180" width="120" height="80" as="geometry" />
        </mxCell>
        <mxCell id="rmX3EuTgFiDhoVk7WDeN-58" style="edgeStyle=orthogonalEdgeStyle;rounded=0;orthogonalLoop=1;jettySize=auto;html=1;exitX=0;exitY=1;exitDx=0;exitDy=0;entryX=0;entryY=1;entryDx=0;entryDy=0;dashed=1;startArrow=none;startFill=0;endArrow=classic;endFill=1;fontFamily=Times New Roman;" parent="1" source="ejoTcQP1C6wPcJlGT3Gc-10" target="rmX3EuTgFiDhoVk7WDeN-29" edge="1">
          <mxGeometry relative="1" as="geometry">
            <Array as="points">
              <mxPoint x="328" y="1018" />
            </Array>
          </mxGeometry>
        </mxCell>
        <mxCell id="rmX3EuTgFiDhoVk7WDeN-77" value="&amp;lt;&amp;lt;include&amp;gt;&amp;gt;" style="edgeLabel;html=1;align=center;verticalAlign=middle;resizable=0;points=[];fontFamily=Times New Roman;" parent="rmX3EuTgFiDhoVk7WDeN-58" vertex="1" connectable="0">
          <mxGeometry x="0.5822" y="1" relative="1" as="geometry">
            <mxPoint as="offset" />
          </mxGeometry>
        </mxCell>
        <mxCell id="ejoTcQP1C6wPcJlGT3Gc-10" value="&lt;font style=&quot;font-size: 18px&quot;&gt;Quản lý khách hàng&lt;/font&gt;" style="ellipse;whiteSpace=wrap;html=1;fillColor=#ffe6cc;strokeColor=#d79b00;fontFamily=Times New Roman;" parent="1" vertex="1">
          <mxGeometry x="310" y="490" width="120" height="80" as="geometry" />
        </mxCell>
        <mxCell id="ejoTcQP1C6wPcJlGT3Gc-40" style="rounded=0;orthogonalLoop=1;jettySize=auto;html=1;exitX=0.5;exitY=0.5;exitDx=0;exitDy=0;exitPerimeter=0;entryX=1;entryY=0.5;entryDx=0;entryDy=0;endArrow=none;endFill=0;fontFamily=Times New Roman;" parent="1" source="ejoTcQP1C6wPcJlGT3Gc-11" target="ejoTcQP1C6wPcJlGT3Gc-16" edge="1">
          <mxGeometry relative="1" as="geometry" />
        </mxCell>
        <mxCell id="rmX3EuTgFiDhoVk7WDeN-26" style="rounded=0;orthogonalLoop=1;jettySize=auto;html=1;exitX=0.5;exitY=0.5;exitDx=0;exitDy=0;exitPerimeter=0;entryX=1;entryY=0.5;entryDx=0;entryDy=0;endArrow=none;endFill=0;fontFamily=Times New Roman;" parent="1" source="ejoTcQP1C6wPcJlGT3Gc-11" target="ejoTcQP1C6wPcJlGT3Gc-20" edge="1">
          <mxGeometry relative="1" as="geometry" />
        </mxCell>
        <mxCell id="rmX3EuTgFiDhoVk7WDeN-27" style="edgeStyle=none;rounded=0;orthogonalLoop=1;jettySize=auto;html=1;exitX=0.5;exitY=0.5;exitDx=0;exitDy=0;exitPerimeter=0;entryX=1;entryY=0.5;entryDx=0;entryDy=0;endArrow=none;endFill=0;fontFamily=Times New Roman;" parent="1" source="ejoTcQP1C6wPcJlGT3Gc-11" target="ejoTcQP1C6wPcJlGT3Gc-15" edge="1">
          <mxGeometry relative="1" as="geometry" />
        </mxCell>
        <mxCell id="PFeNby8rjZ6YVjOQg9s7-1" style="edgeStyle=orthogonalEdgeStyle;rounded=0;orthogonalLoop=1;jettySize=auto;html=1;exitX=0.5;exitY=0.5;exitDx=0;exitDy=0;exitPerimeter=0;endArrow=block;endFill=0;" edge="1" parent="1" source="ejoTcQP1C6wPcJlGT3Gc-11">
          <mxGeometry relative="1" as="geometry">
            <mxPoint x="185" y="850" as="targetPoint" />
            <Array as="points">
              <mxPoint x="1495" y="1600" />
              <mxPoint x="185" y="1600" />
            </Array>
          </mxGeometry>
        </mxCell>
        <mxCell id="ejoTcQP1C6wPcJlGT3Gc-11" value="Quản lý" style="shape=umlActor;verticalLabelPosition=bottom;verticalAlign=top;html=1;outlineConnect=0;fontFamily=Times New Roman;" parent="1" vertex="1">
          <mxGeometry x="1480" y="820" width="30" height="60" as="geometry" />
        </mxCell>
        <mxCell id="rmX3EuTgFiDhoVk7WDeN-7" style="rounded=0;orthogonalLoop=1;jettySize=auto;html=1;exitX=1;exitY=0.5;exitDx=0;exitDy=0;endArrow=none;endFill=0;fontFamily=Times New Roman;entryX=0.5;entryY=0.5;entryDx=0;entryDy=0;entryPerimeter=0;" parent="1" source="ejoTcQP1C6wPcJlGT3Gc-14" target="ejoTcQP1C6wPcJlGT3Gc-11" edge="1">
          <mxGeometry relative="1" as="geometry" />
        </mxCell>
        <mxCell id="ejoTcQP1C6wPcJlGT3Gc-14" value="&lt;font style=&quot;font-size: 18px&quot;&gt;Quản lý nhân viên&lt;/font&gt;" style="ellipse;whiteSpace=wrap;html=1;fillColor=#ffe6cc;strokeColor=#d79b00;fontFamily=Times New Roman;" parent="1" vertex="1">
          <mxGeometry x="1250" y="1060" width="120" height="80" as="geometry" />
        </mxCell>
        <mxCell id="ejoTcQP1C6wPcJlGT3Gc-15" value="&lt;font style=&quot;font-size: 18px&quot;&gt;Quản lý nhà cung cấp&lt;/font&gt;" style="ellipse;whiteSpace=wrap;html=1;fillColor=#ffe6cc;strokeColor=#d79b00;fontFamily=Times New Roman;" parent="1" vertex="1">
          <mxGeometry x="1190" y="585" width="120" height="80" as="geometry" />
        </mxCell>
        <mxCell id="rmX3EuTgFiDhoVk7WDeN-32" style="edgeStyle=orthogonalEdgeStyle;rounded=0;orthogonalLoop=1;jettySize=auto;html=1;exitX=1;exitY=1;exitDx=0;exitDy=0;dashed=1;startArrow=none;startFill=0;endArrow=classic;endFill=1;fontFamily=Times New Roman;entryX=1;entryY=0;entryDx=0;entryDy=0;" parent="1" source="ejoTcQP1C6wPcJlGT3Gc-16" edge="1" target="rmX3EuTgFiDhoVk7WDeN-29">
          <mxGeometry relative="1" as="geometry">
            <mxPoint x="760" y="1061.6666666666667" as="targetPoint" />
            <Array as="points">
              <mxPoint x="1350" y="328" />
              <mxPoint x="1350" y="850" />
              <mxPoint x="802" y="850" />
            </Array>
          </mxGeometry>
        </mxCell>
        <mxCell id="rmX3EuTgFiDhoVk7WDeN-33" value="&amp;lt;&amp;lt;include&amp;gt;&amp;gt;" style="edgeLabel;html=1;align=center;verticalAlign=middle;resizable=0;points=[];fontFamily=Times New Roman;" parent="rmX3EuTgFiDhoVk7WDeN-32" vertex="1" connectable="0">
          <mxGeometry x="0.3589" relative="1" as="geometry">
            <mxPoint as="offset" />
          </mxGeometry>
        </mxCell>
        <mxCell id="ejoTcQP1C6wPcJlGT3Gc-16" value="&lt;font style=&quot;font-size: 18px&quot;&gt;Quản lý thuốc&lt;/font&gt;" style="ellipse;whiteSpace=wrap;html=1;fillColor=#ffe6cc;strokeColor=#d79b00;fontFamily=Times New Roman;" parent="1" vertex="1">
          <mxGeometry x="1190" y="260" width="120" height="80" as="geometry" />
        </mxCell>
        <mxCell id="ejoTcQP1C6wPcJlGT3Gc-53" style="edgeStyle=orthogonalEdgeStyle;rounded=0;orthogonalLoop=1;jettySize=auto;html=1;exitX=0;exitY=0.5;exitDx=0;exitDy=0;dashed=1;endArrow=classic;endFill=1;fontFamily=Times New Roman;" parent="1" source="ejoTcQP1C6wPcJlGT3Gc-17" target="ejoTcQP1C6wPcJlGT3Gc-8" edge="1">
          <mxGeometry relative="1" as="geometry" />
        </mxCell>
        <mxCell id="ejoTcQP1C6wPcJlGT3Gc-58" value="&amp;lt;&amp;lt;extend&amp;gt;&amp;gt;" style="edgeLabel;html=1;align=center;verticalAlign=middle;resizable=0;points=[];fontFamily=Times New Roman;" parent="ejoTcQP1C6wPcJlGT3Gc-53" vertex="1" connectable="0">
          <mxGeometry x="-0.2794" y="-2" relative="1" as="geometry">
            <mxPoint x="29.83" y="2" as="offset" />
          </mxGeometry>
        </mxCell>
        <mxCell id="ejoTcQP1C6wPcJlGT3Gc-17" value="&lt;font style=&quot;font-size: 18px&quot;&gt;Xem doanh thu/ngày&lt;/font&gt;" style="ellipse;whiteSpace=wrap;html=1;fillColor=#dae8fc;strokeColor=#6c8ebf;fontFamily=Times New Roman;" parent="1" vertex="1">
          <mxGeometry x="600" y="-10" width="120" height="80" as="geometry" />
        </mxCell>
        <mxCell id="ejoTcQP1C6wPcJlGT3Gc-51" style="edgeStyle=orthogonalEdgeStyle;rounded=0;orthogonalLoop=1;jettySize=auto;html=1;exitX=0;exitY=0.5;exitDx=0;exitDy=0;entryX=0.5;entryY=1;entryDx=0;entryDy=0;dashed=1;endArrow=classic;endFill=1;fontFamily=Times New Roman;" parent="1" source="ejoTcQP1C6wPcJlGT3Gc-18" target="ejoTcQP1C6wPcJlGT3Gc-8" edge="1">
          <mxGeometry relative="1" as="geometry">
            <Array as="points">
              <mxPoint x="354" y="310" />
            </Array>
          </mxGeometry>
        </mxCell>
        <mxCell id="ejoTcQP1C6wPcJlGT3Gc-59" value="&amp;lt;&amp;lt;extend&amp;gt;&amp;gt;" style="edgeLabel;html=1;align=center;verticalAlign=middle;resizable=0;points=[];fontFamily=Times New Roman;" parent="ejoTcQP1C6wPcJlGT3Gc-51" vertex="1" connectable="0">
          <mxGeometry x="-0.0895" y="-1" relative="1" as="geometry">
            <mxPoint x="16.67" y="1" as="offset" />
          </mxGeometry>
        </mxCell>
        <mxCell id="rmX3EuTgFiDhoVk7WDeN-79" style="edgeStyle=orthogonalEdgeStyle;rounded=0;orthogonalLoop=1;jettySize=auto;html=1;exitX=1;exitY=1;exitDx=0;exitDy=0;entryX=0.5;entryY=0;entryDx=0;entryDy=0;dashed=1;startArrow=none;startFill=0;endArrow=classic;endFill=1;fontFamily=Times New Roman;" parent="1" source="ejoTcQP1C6wPcJlGT3Gc-18" target="rmX3EuTgFiDhoVk7WDeN-78" edge="1">
          <mxGeometry relative="1" as="geometry">
            <Array as="points">
              <mxPoint x="767" y="328" />
            </Array>
          </mxGeometry>
        </mxCell>
        <mxCell id="rmX3EuTgFiDhoVk7WDeN-80" value="&amp;lt;&amp;lt;include&amp;gt;&amp;gt;" style="edgeLabel;html=1;align=center;verticalAlign=middle;resizable=0;points=[];fontFamily=Times New Roman;" parent="rmX3EuTgFiDhoVk7WDeN-79" vertex="1" connectable="0">
          <mxGeometry x="0.6059" relative="1" as="geometry">
            <mxPoint y="-32.09" as="offset" />
          </mxGeometry>
        </mxCell>
        <mxCell id="ejoTcQP1C6wPcJlGT3Gc-18" value="&lt;font style=&quot;font-size: 18px&quot;&gt;Tạo hóa đơn&lt;/font&gt;" style="ellipse;whiteSpace=wrap;html=1;fillColor=#dae8fc;strokeColor=#6c8ebf;fontFamily=Times New Roman;" parent="1" vertex="1">
          <mxGeometry x="600" y="260" width="120" height="80" as="geometry" />
        </mxCell>
        <mxCell id="ejoTcQP1C6wPcJlGT3Gc-20" value="&lt;font style=&quot;font-size: 18px&quot;&gt;Thống kê&lt;/font&gt;" style="ellipse;whiteSpace=wrap;html=1;fillColor=#ffe6cc;strokeColor=#d79b00;fontFamily=Times New Roman;" parent="1" vertex="1">
          <mxGeometry x="1250" y="1350" width="120" height="80" as="geometry" />
        </mxCell>
        <mxCell id="ejoTcQP1C6wPcJlGT3Gc-27" style="edgeStyle=orthogonalEdgeStyle;rounded=0;orthogonalLoop=1;jettySize=auto;html=1;exitX=1;exitY=1;exitDx=0;exitDy=0;dashed=1;fontFamily=Times New Roman;" parent="1" source="ejoTcQP1C6wPcJlGT3Gc-21" target="ejoTcQP1C6wPcJlGT3Gc-16" edge="1">
          <mxGeometry relative="1" as="geometry" />
        </mxCell>
        <mxCell id="ejoTcQP1C6wPcJlGT3Gc-28" value="&amp;lt;&amp;lt;extend&amp;gt;&amp;gt;" style="edgeLabel;html=1;align=center;verticalAlign=middle;resizable=0;points=[];fontFamily=Times New Roman;" parent="ejoTcQP1C6wPcJlGT3Gc-27" vertex="1" connectable="0">
          <mxGeometry x="-0.2516" y="1" relative="1" as="geometry">
            <mxPoint y="2.71" as="offset" />
          </mxGeometry>
        </mxCell>
        <mxCell id="ejoTcQP1C6wPcJlGT3Gc-21" value="&lt;font style=&quot;font-size: 18px&quot;&gt;Thêm thuốc&lt;/font&gt;" style="ellipse;whiteSpace=wrap;html=1;fillColor=#dae8fc;strokeColor=#6c8ebf;fontFamily=Times New Roman;" parent="1" vertex="1">
          <mxGeometry x="1000" y="90" width="120" height="80" as="geometry" />
        </mxCell>
        <mxCell id="ejoTcQP1C6wPcJlGT3Gc-31" style="rounded=0;orthogonalLoop=1;jettySize=auto;html=1;exitX=1;exitY=0.5;exitDx=0;exitDy=0;entryX=0.5;entryY=0;entryDx=0;entryDy=0;dashed=1;fontFamily=Times New Roman;" parent="1" source="ejoTcQP1C6wPcJlGT3Gc-22" target="ejoTcQP1C6wPcJlGT3Gc-16" edge="1">
          <mxGeometry relative="1" as="geometry" />
        </mxCell>
        <mxCell id="ejoTcQP1C6wPcJlGT3Gc-32" value="&amp;lt;&amp;lt;extend&amp;gt;&amp;gt;" style="edgeLabel;html=1;align=center;verticalAlign=middle;resizable=0;points=[];fontFamily=Times New Roman;" parent="ejoTcQP1C6wPcJlGT3Gc-31" vertex="1" connectable="0">
          <mxGeometry x="-0.0864" y="2" relative="1" as="geometry">
            <mxPoint as="offset" />
          </mxGeometry>
        </mxCell>
        <mxCell id="ejoTcQP1C6wPcJlGT3Gc-22" value="&lt;font style=&quot;font-size: 18px&quot;&gt;Sửa thuốc&lt;/font&gt;" style="ellipse;whiteSpace=wrap;html=1;fillColor=#dae8fc;strokeColor=#6c8ebf;fontFamily=Times New Roman;" parent="1" vertex="1">
          <mxGeometry x="1000" y="220" width="120" height="80" as="geometry" />
        </mxCell>
        <mxCell id="ejoTcQP1C6wPcJlGT3Gc-36" style="edgeStyle=orthogonalEdgeStyle;rounded=0;orthogonalLoop=1;jettySize=auto;html=1;exitX=1;exitY=0.5;exitDx=0;exitDy=0;entryX=0.5;entryY=1;entryDx=0;entryDy=0;dashed=1;fontFamily=Times New Roman;" parent="1" source="ejoTcQP1C6wPcJlGT3Gc-23" target="ejoTcQP1C6wPcJlGT3Gc-16" edge="1">
          <mxGeometry relative="1" as="geometry" />
        </mxCell>
        <mxCell id="ejoTcQP1C6wPcJlGT3Gc-37" value="&amp;lt;&amp;lt;extend&amp;gt;&amp;gt;" style="edgeLabel;html=1;align=center;verticalAlign=middle;resizable=0;points=[];fontFamily=Times New Roman;" parent="ejoTcQP1C6wPcJlGT3Gc-36" vertex="1" connectable="0">
          <mxGeometry x="-0.0502" y="2" relative="1" as="geometry">
            <mxPoint as="offset" />
          </mxGeometry>
        </mxCell>
        <mxCell id="ejoTcQP1C6wPcJlGT3Gc-23" value="&lt;font style=&quot;font-size: 18px&quot;&gt;Xóa thuốc&lt;/font&gt;" style="ellipse;whiteSpace=wrap;html=1;fillColor=#dae8fc;strokeColor=#6c8ebf;fontFamily=Times New Roman;" parent="1" vertex="1">
          <mxGeometry x="1000" y="340" width="120" height="80" as="geometry" />
        </mxCell>
        <mxCell id="ejoTcQP1C6wPcJlGT3Gc-48" style="edgeStyle=orthogonalEdgeStyle;rounded=0;orthogonalLoop=1;jettySize=auto;html=1;exitX=1;exitY=0.5;exitDx=0;exitDy=0;endArrow=classic;endFill=1;dashed=1;fontFamily=Times New Roman;" parent="1" source="ejoTcQP1C6wPcJlGT3Gc-24" target="ejoTcQP1C6wPcJlGT3Gc-16" edge="1">
          <mxGeometry relative="1" as="geometry">
            <Array as="points">
              <mxPoint x="1030" y="310" />
              <mxPoint x="1030" y="310" />
            </Array>
          </mxGeometry>
        </mxCell>
        <mxCell id="ejoTcQP1C6wPcJlGT3Gc-49" value="&amp;lt;&amp;lt;extend&amp;gt;&amp;gt;" style="edgeLabel;html=1;align=center;verticalAlign=middle;resizable=0;points=[];fontFamily=Times New Roman;" parent="ejoTcQP1C6wPcJlGT3Gc-48" vertex="1" connectable="0">
          <mxGeometry x="-0.37" y="3" relative="1" as="geometry">
            <mxPoint as="offset" />
          </mxGeometry>
        </mxCell>
        <mxCell id="ejoTcQP1C6wPcJlGT3Gc-55" style="edgeStyle=orthogonalEdgeStyle;rounded=0;orthogonalLoop=1;jettySize=auto;html=1;exitX=0;exitY=0.5;exitDx=0;exitDy=0;dashed=1;endArrow=classic;endFill=1;entryX=1;entryY=0.5;entryDx=0;entryDy=0;fontFamily=Times New Roman;" parent="1" source="ejoTcQP1C6wPcJlGT3Gc-24" target="ejoTcQP1C6wPcJlGT3Gc-18" edge="1">
          <mxGeometry relative="1" as="geometry">
            <mxPoint x="560" y="310" as="targetPoint" />
            <Array as="points">
              <mxPoint x="810" y="300" />
            </Array>
          </mxGeometry>
        </mxCell>
        <mxCell id="ejoTcQP1C6wPcJlGT3Gc-57" value="&amp;lt;&amp;lt;extend&amp;gt;&amp;gt;" style="edgeLabel;html=1;align=center;verticalAlign=middle;resizable=0;points=[];fontFamily=Times New Roman;" parent="ejoTcQP1C6wPcJlGT3Gc-55" vertex="1" connectable="0">
          <mxGeometry x="0.0521" y="-1" relative="1" as="geometry">
            <mxPoint x="2.5" y="1" as="offset" />
          </mxGeometry>
        </mxCell>
        <mxCell id="ejoTcQP1C6wPcJlGT3Gc-24" value="&lt;font style=&quot;font-size: 18px&quot;&gt;Xem thuốc&lt;/font&gt;" style="ellipse;whiteSpace=wrap;html=1;fillColor=#dae8fc;strokeColor=#6c8ebf;fontFamily=Times New Roman;" parent="1" vertex="1">
          <mxGeometry x="810" y="270" width="120" height="80" as="geometry" />
        </mxCell>
        <mxCell id="ejoTcQP1C6wPcJlGT3Gc-38" style="edgeStyle=orthogonalEdgeStyle;rounded=0;orthogonalLoop=1;jettySize=auto;html=1;exitX=1;exitY=0.5;exitDx=0;exitDy=0;dashed=1;fontFamily=Times New Roman;" parent="1" source="ejoTcQP1C6wPcJlGT3Gc-25" target="ejoTcQP1C6wPcJlGT3Gc-16" edge="1">
          <mxGeometry relative="1" as="geometry" />
        </mxCell>
        <mxCell id="ejoTcQP1C6wPcJlGT3Gc-39" value="&amp;lt;&amp;lt;extend&amp;gt;&amp;gt;" style="edgeLabel;html=1;align=center;verticalAlign=middle;resizable=0;points=[];fontFamily=Times New Roman;" parent="ejoTcQP1C6wPcJlGT3Gc-38" vertex="1" connectable="0">
          <mxGeometry x="-0.672" y="2" relative="1" as="geometry">
            <mxPoint as="offset" />
          </mxGeometry>
        </mxCell>
        <mxCell id="ejoTcQP1C6wPcJlGT3Gc-25" value="&lt;font style=&quot;font-size: 18px&quot;&gt;Tiêu hủy thuốc&lt;/font&gt;" style="ellipse;whiteSpace=wrap;html=1;fillColor=#dae8fc;strokeColor=#6c8ebf;fontFamily=Times New Roman;" parent="1" vertex="1">
          <mxGeometry x="1000" y="440" width="120" height="80" as="geometry" />
        </mxCell>
        <mxCell id="ejoTcQP1C6wPcJlGT3Gc-29" style="edgeStyle=orthogonalEdgeStyle;rounded=0;orthogonalLoop=1;jettySize=auto;html=1;exitX=1;exitY=0.5;exitDx=0;exitDy=0;dashed=1;fontFamily=Times New Roman;" parent="1" source="ejoTcQP1C6wPcJlGT3Gc-26" target="ejoTcQP1C6wPcJlGT3Gc-16" edge="1">
          <mxGeometry relative="1" as="geometry" />
        </mxCell>
        <mxCell id="ejoTcQP1C6wPcJlGT3Gc-30" value="&amp;lt;&amp;lt;extend&amp;gt;&amp;gt;" style="edgeLabel;html=1;align=center;verticalAlign=middle;resizable=0;points=[];fontFamily=Times New Roman;" parent="ejoTcQP1C6wPcJlGT3Gc-29" vertex="1" connectable="0">
          <mxGeometry x="-0.479" y="3" relative="1" as="geometry">
            <mxPoint as="offset" />
          </mxGeometry>
        </mxCell>
        <mxCell id="ejoTcQP1C6wPcJlGT3Gc-54" style="edgeStyle=orthogonalEdgeStyle;rounded=0;orthogonalLoop=1;jettySize=auto;html=1;exitX=0;exitY=0.5;exitDx=0;exitDy=0;dashed=1;endArrow=classic;endFill=1;entryX=0.5;entryY=0;entryDx=0;entryDy=0;fontFamily=Times New Roman;" parent="1" source="ejoTcQP1C6wPcJlGT3Gc-26" target="ejoTcQP1C6wPcJlGT3Gc-18" edge="1">
          <mxGeometry relative="1" as="geometry">
            <Array as="points">
              <mxPoint x="660" y="200" />
            </Array>
          </mxGeometry>
        </mxCell>
        <mxCell id="ejoTcQP1C6wPcJlGT3Gc-56" value="&amp;lt;&amp;lt;extend&amp;gt;&amp;gt;" style="edgeLabel;html=1;align=center;verticalAlign=middle;resizable=0;points=[];fontFamily=Times New Roman;" parent="ejoTcQP1C6wPcJlGT3Gc-54" vertex="1" connectable="0">
          <mxGeometry x="0.2524" y="-4" relative="1" as="geometry">
            <mxPoint x="1" as="offset" />
          </mxGeometry>
        </mxCell>
        <mxCell id="ejoTcQP1C6wPcJlGT3Gc-26" value="&lt;font style=&quot;font-size: 18px&quot;&gt;Tìm kiếm thuốc&lt;/font&gt;" style="ellipse;whiteSpace=wrap;html=1;fillColor=#dae8fc;strokeColor=#6c8ebf;fontFamily=Times New Roman;" parent="1" vertex="1">
          <mxGeometry x="810" y="160" width="120" height="80" as="geometry" />
        </mxCell>
        <mxCell id="ejoTcQP1C6wPcJlGT3Gc-64" style="edgeStyle=orthogonalEdgeStyle;rounded=0;orthogonalLoop=1;jettySize=auto;html=1;exitX=0;exitY=0.5;exitDx=0;exitDy=0;dashed=1;endArrow=classic;endFill=1;fontFamily=Times New Roman;" parent="1" source="ejoTcQP1C6wPcJlGT3Gc-60" target="ejoTcQP1C6wPcJlGT3Gc-10" edge="1">
          <mxGeometry relative="1" as="geometry" />
        </mxCell>
        <mxCell id="ejoTcQP1C6wPcJlGT3Gc-68" value="&amp;lt;&amp;lt;extend&amp;gt;&amp;gt;" style="edgeLabel;html=1;align=center;verticalAlign=middle;resizable=0;points=[];fontFamily=Times New Roman;" parent="ejoTcQP1C6wPcJlGT3Gc-64" vertex="1" connectable="0">
          <mxGeometry x="-0.1439" y="1" relative="1" as="geometry">
            <mxPoint as="offset" />
          </mxGeometry>
        </mxCell>
        <mxCell id="ejoTcQP1C6wPcJlGT3Gc-60" value="&lt;font style=&quot;font-size: 18px&quot;&gt;Thêm khách hàng&lt;/font&gt;" style="ellipse;whiteSpace=wrap;html=1;fillColor=#dae8fc;strokeColor=#6c8ebf;fontFamily=Times New Roman;" parent="1" vertex="1">
          <mxGeometry x="450" y="770" width="120" height="80" as="geometry" />
        </mxCell>
        <mxCell id="ejoTcQP1C6wPcJlGT3Gc-65" style="edgeStyle=orthogonalEdgeStyle;rounded=0;orthogonalLoop=1;jettySize=auto;html=1;exitX=0;exitY=0.5;exitDx=0;exitDy=0;entryX=1;entryY=0.5;entryDx=0;entryDy=0;dashed=1;endArrow=classic;endFill=1;fontFamily=Times New Roman;" parent="1" source="ejoTcQP1C6wPcJlGT3Gc-61" target="ejoTcQP1C6wPcJlGT3Gc-10" edge="1">
          <mxGeometry relative="1" as="geometry">
            <Array as="points">
              <mxPoint x="570" y="630" />
              <mxPoint x="440" y="630" />
              <mxPoint x="440" y="530" />
            </Array>
          </mxGeometry>
        </mxCell>
        <mxCell id="ejoTcQP1C6wPcJlGT3Gc-69" value="&amp;lt;&amp;lt;extend&amp;gt;&amp;gt;&amp;nbsp;" style="edgeLabel;html=1;align=center;verticalAlign=middle;resizable=0;points=[];fontFamily=Times New Roman;" parent="ejoTcQP1C6wPcJlGT3Gc-65" vertex="1" connectable="0">
          <mxGeometry x="0.005" y="-1" relative="1" as="geometry">
            <mxPoint as="offset" />
          </mxGeometry>
        </mxCell>
        <mxCell id="ejoTcQP1C6wPcJlGT3Gc-61" value="&lt;font style=&quot;font-size: 18px&quot;&gt;Sửa khách hàng&lt;/font&gt;" style="ellipse;whiteSpace=wrap;html=1;fillColor=#dae8fc;strokeColor=#6c8ebf;fontFamily=Times New Roman;" parent="1" vertex="1">
          <mxGeometry x="570" y="585" width="120" height="80" as="geometry" />
        </mxCell>
        <mxCell id="ejoTcQP1C6wPcJlGT3Gc-66" style="edgeStyle=orthogonalEdgeStyle;rounded=0;orthogonalLoop=1;jettySize=auto;html=1;exitX=0;exitY=0.5;exitDx=0;exitDy=0;entryX=0.5;entryY=1;entryDx=0;entryDy=0;dashed=1;endArrow=classic;endFill=1;fontFamily=Times New Roman;" parent="1" source="ejoTcQP1C6wPcJlGT3Gc-62" target="ejoTcQP1C6wPcJlGT3Gc-10" edge="1">
          <mxGeometry relative="1" as="geometry" />
        </mxCell>
        <mxCell id="ejoTcQP1C6wPcJlGT3Gc-70" value="&amp;lt;&amp;lt;extend&amp;gt;&amp;gt;" style="edgeLabel;html=1;align=center;verticalAlign=middle;resizable=0;points=[];fontFamily=Times New Roman;" parent="ejoTcQP1C6wPcJlGT3Gc-66" vertex="1" connectable="0">
          <mxGeometry x="0.0255" relative="1" as="geometry">
            <mxPoint as="offset" />
          </mxGeometry>
        </mxCell>
        <mxCell id="ejoTcQP1C6wPcJlGT3Gc-62" value="&lt;font style=&quot;font-size: 18px&quot;&gt;Xóa khách hàng&lt;/font&gt;" style="ellipse;whiteSpace=wrap;html=1;fillColor=#dae8fc;strokeColor=#6c8ebf;fontFamily=Times New Roman;" parent="1" vertex="1">
          <mxGeometry x="450" y="680" width="120" height="80" as="geometry" />
        </mxCell>
        <mxCell id="ejoTcQP1C6wPcJlGT3Gc-67" style="edgeStyle=orthogonalEdgeStyle;rounded=0;orthogonalLoop=1;jettySize=auto;html=1;exitX=0;exitY=0.5;exitDx=0;exitDy=0;dashed=1;endArrow=classic;endFill=1;entryX=1;entryY=0;entryDx=0;entryDy=0;fontFamily=Times New Roman;" parent="1" source="ejoTcQP1C6wPcJlGT3Gc-63" target="ejoTcQP1C6wPcJlGT3Gc-10" edge="1">
          <mxGeometry relative="1" as="geometry">
            <mxPoint x="290" y="500" as="targetPoint" />
          </mxGeometry>
        </mxCell>
        <mxCell id="ejoTcQP1C6wPcJlGT3Gc-71" value="&amp;lt;&amp;lt;extend&amp;gt;&amp;gt;" style="edgeLabel;html=1;align=center;verticalAlign=middle;resizable=0;points=[];fontFamily=Times New Roman;" parent="ejoTcQP1C6wPcJlGT3Gc-67" vertex="1" connectable="0">
          <mxGeometry x="-0.3203" y="-2" relative="1" as="geometry">
            <mxPoint as="offset" />
          </mxGeometry>
        </mxCell>
        <mxCell id="ejoTcQP1C6wPcJlGT3Gc-96" style="edgeStyle=orthogonalEdgeStyle;rounded=0;orthogonalLoop=1;jettySize=auto;html=1;exitX=1;exitY=0.5;exitDx=0;exitDy=0;dashed=1;endArrow=classic;endFill=1;fontFamily=Times New Roman;" parent="1" source="ejoTcQP1C6wPcJlGT3Gc-63" target="ejoTcQP1C6wPcJlGT3Gc-18" edge="1">
          <mxGeometry relative="1" as="geometry" />
        </mxCell>
        <mxCell id="ejoTcQP1C6wPcJlGT3Gc-98" value="&amp;lt;&amp;lt;extend&amp;gt;&amp;gt;" style="edgeLabel;html=1;align=center;verticalAlign=middle;resizable=0;points=[];fontFamily=Times New Roman;" parent="ejoTcQP1C6wPcJlGT3Gc-96" vertex="1" connectable="0">
          <mxGeometry x="-0.5882" y="1" relative="1" as="geometry">
            <mxPoint x="25" y="1" as="offset" />
          </mxGeometry>
        </mxCell>
        <mxCell id="ejoTcQP1C6wPcJlGT3Gc-63" value="&lt;font style=&quot;font-size: 18px&quot;&gt;Xem thông tin khách hàng&lt;/font&gt;" style="ellipse;whiteSpace=wrap;html=1;fillColor=#dae8fc;strokeColor=#6c8ebf;fontFamily=Times New Roman;" parent="1" vertex="1">
          <mxGeometry x="450" y="380" width="120" height="80" as="geometry" />
        </mxCell>
        <mxCell id="ejoTcQP1C6wPcJlGT3Gc-88" style="edgeStyle=orthogonalEdgeStyle;rounded=0;orthogonalLoop=1;jettySize=auto;html=1;exitX=1;exitY=0.5;exitDx=0;exitDy=0;dashed=1;endArrow=classic;endFill=1;fontFamily=Times New Roman;" parent="1" source="ejoTcQP1C6wPcJlGT3Gc-77" edge="1">
          <mxGeometry relative="1" as="geometry">
            <mxPoint x="1249.9999999999995" y="660" as="targetPoint" />
          </mxGeometry>
        </mxCell>
        <mxCell id="ejoTcQP1C6wPcJlGT3Gc-92" value="&amp;lt;&amp;lt;extend&amp;gt;&amp;gt;" style="edgeLabel;html=1;align=center;verticalAlign=middle;resizable=0;points=[];fontFamily=Times New Roman;" parent="ejoTcQP1C6wPcJlGT3Gc-88" vertex="1" connectable="0">
          <mxGeometry x="-0.5591" y="-1" relative="1" as="geometry">
            <mxPoint as="offset" />
          </mxGeometry>
        </mxCell>
        <mxCell id="ejoTcQP1C6wPcJlGT3Gc-77" value="&lt;font style=&quot;font-size: 18px&quot;&gt;Thêm nhà cung cấp&lt;/font&gt;" style="ellipse;whiteSpace=wrap;html=1;fillColor=#dae8fc;strokeColor=#6c8ebf;fontFamily=Times New Roman;" parent="1" vertex="1">
          <mxGeometry x="1000" y="690" width="120" height="80" as="geometry" />
        </mxCell>
        <mxCell id="ejoTcQP1C6wPcJlGT3Gc-86" style="edgeStyle=orthogonalEdgeStyle;rounded=0;orthogonalLoop=1;jettySize=auto;html=1;exitX=1;exitY=0.5;exitDx=0;exitDy=0;entryX=0;entryY=0.5;entryDx=0;entryDy=0;dashed=1;endArrow=classic;endFill=1;fontFamily=Times New Roman;" parent="1" source="ejoTcQP1C6wPcJlGT3Gc-78" target="ejoTcQP1C6wPcJlGT3Gc-15" edge="1">
          <mxGeometry relative="1" as="geometry">
            <Array as="points">
              <mxPoint x="1190" y="610" />
            </Array>
          </mxGeometry>
        </mxCell>
        <mxCell id="ejoTcQP1C6wPcJlGT3Gc-90" value="&amp;lt;&amp;lt;extend&amp;gt;&amp;gt;" style="edgeLabel;html=1;align=center;verticalAlign=middle;resizable=0;points=[];fontFamily=Times New Roman;" parent="ejoTcQP1C6wPcJlGT3Gc-86" vertex="1" connectable="0">
          <mxGeometry x="-0.293" y="1" relative="1" as="geometry">
            <mxPoint as="offset" />
          </mxGeometry>
        </mxCell>
        <mxCell id="ejoTcQP1C6wPcJlGT3Gc-78" value="&lt;font style=&quot;font-size: 18px&quot;&gt;Sửa nhà cung cấp&lt;/font&gt;" style="ellipse;whiteSpace=wrap;html=1;fillColor=#dae8fc;strokeColor=#6c8ebf;fontFamily=Times New Roman;" parent="1" vertex="1">
          <mxGeometry x="1000" y="570" width="120" height="80" as="geometry" />
        </mxCell>
        <mxCell id="ejoTcQP1C6wPcJlGT3Gc-87" style="edgeStyle=orthogonalEdgeStyle;rounded=0;orthogonalLoop=1;jettySize=auto;html=1;exitX=1;exitY=0.5;exitDx=0;exitDy=0;dashed=1;endArrow=classic;endFill=1;fontFamily=Times New Roman;" parent="1" source="ejoTcQP1C6wPcJlGT3Gc-79" target="ejoTcQP1C6wPcJlGT3Gc-15" edge="1">
          <mxGeometry relative="1" as="geometry">
            <Array as="points">
              <mxPoint x="1250" y="670" />
            </Array>
          </mxGeometry>
        </mxCell>
        <mxCell id="ejoTcQP1C6wPcJlGT3Gc-91" value="&amp;lt;&amp;lt;extend&amp;gt;&amp;gt;" style="edgeLabel;html=1;align=center;verticalAlign=middle;resizable=0;points=[];fontFamily=Times New Roman;" parent="ejoTcQP1C6wPcJlGT3Gc-87" vertex="1" connectable="0">
          <mxGeometry x="-0.4646" relative="1" as="geometry">
            <mxPoint as="offset" />
          </mxGeometry>
        </mxCell>
        <mxCell id="ejoTcQP1C6wPcJlGT3Gc-79" value="&lt;font style=&quot;font-size: 18px&quot;&gt;Xóa nhà cung cấp&lt;/font&gt;" style="ellipse;whiteSpace=wrap;html=1;fillColor=#dae8fc;strokeColor=#6c8ebf;fontFamily=Times New Roman;" parent="1" vertex="1">
          <mxGeometry x="880" y="630" width="120" height="80" as="geometry" />
        </mxCell>
        <mxCell id="ejoTcQP1C6wPcJlGT3Gc-82" style="edgeStyle=orthogonalEdgeStyle;rounded=0;orthogonalLoop=1;jettySize=auto;html=1;exitX=0.5;exitY=0;exitDx=0;exitDy=0;dashed=1;endArrow=classic;endFill=1;entryX=0.5;entryY=1;entryDx=0;entryDy=0;fontFamily=Times New Roman;" parent="1" source="ejoTcQP1C6wPcJlGT3Gc-80" target="ejoTcQP1C6wPcJlGT3Gc-24" edge="1">
          <mxGeometry relative="1" as="geometry">
            <Array as="points">
              <mxPoint x="870" y="505" />
            </Array>
          </mxGeometry>
        </mxCell>
        <mxCell id="ejoTcQP1C6wPcJlGT3Gc-83" value="&amp;lt;&amp;lt;extend&amp;gt;&amp;gt;" style="edgeLabel;html=1;align=center;verticalAlign=middle;resizable=0;points=[];fontFamily=Times New Roman;" parent="ejoTcQP1C6wPcJlGT3Gc-82" vertex="1" connectable="0">
          <mxGeometry x="0.297" y="1" relative="1" as="geometry">
            <mxPoint as="offset" />
          </mxGeometry>
        </mxCell>
        <mxCell id="ejoTcQP1C6wPcJlGT3Gc-85" style="edgeStyle=orthogonalEdgeStyle;rounded=0;orthogonalLoop=1;jettySize=auto;html=1;exitX=1;exitY=0.5;exitDx=0;exitDy=0;entryX=0.5;entryY=0;entryDx=0;entryDy=0;dashed=1;endArrow=classic;endFill=1;fontFamily=Times New Roman;" parent="1" source="ejoTcQP1C6wPcJlGT3Gc-80" target="ejoTcQP1C6wPcJlGT3Gc-15" edge="1">
          <mxGeometry relative="1" as="geometry">
            <Array as="points">
              <mxPoint x="1250" y="560" />
            </Array>
          </mxGeometry>
        </mxCell>
        <mxCell id="ejoTcQP1C6wPcJlGT3Gc-89" value="&amp;lt;&amp;lt;extend&amp;gt;&amp;gt;" style="edgeLabel;html=1;align=center;verticalAlign=middle;resizable=0;points=[];fontFamily=Times New Roman;" parent="ejoTcQP1C6wPcJlGT3Gc-85" vertex="1" connectable="0">
          <mxGeometry x="-0.2839" y="-1" relative="1" as="geometry">
            <mxPoint x="109.37" y="-1.03" as="offset" />
          </mxGeometry>
        </mxCell>
        <mxCell id="ejoTcQP1C6wPcJlGT3Gc-80" value="&lt;font style=&quot;font-size: 18px&quot;&gt;Xem thông tin nhà cung cấp&lt;/font&gt;" style="ellipse;whiteSpace=wrap;html=1;fillColor=#dae8fc;strokeColor=#6c8ebf;fontFamily=Times New Roman;" parent="1" vertex="1">
          <mxGeometry x="890" y="520" width="120" height="80" as="geometry" />
        </mxCell>
        <mxCell id="ejoTcQP1C6wPcJlGT3Gc-94" style="edgeStyle=orthogonalEdgeStyle;rounded=0;orthogonalLoop=1;jettySize=auto;html=1;exitX=0;exitY=0.5;exitDx=0;exitDy=0;dashed=1;endArrow=classic;endFill=1;entryX=1;entryY=0.5;entryDx=0;entryDy=0;fontFamily=Times New Roman;" parent="1" source="ejoTcQP1C6wPcJlGT3Gc-93" target="ejoTcQP1C6wPcJlGT3Gc-10" edge="1">
          <mxGeometry relative="1" as="geometry">
            <Array as="points">
              <mxPoint x="430" y="520" />
            </Array>
          </mxGeometry>
        </mxCell>
        <mxCell id="ejoTcQP1C6wPcJlGT3Gc-95" value="&amp;lt;&amp;lt;extend&amp;gt;&amp;gt;" style="edgeLabel;html=1;align=center;verticalAlign=middle;resizable=0;points=[];fontFamily=Times New Roman;" parent="ejoTcQP1C6wPcJlGT3Gc-94" vertex="1" connectable="0">
          <mxGeometry x="0.481" y="-10" relative="1" as="geometry">
            <mxPoint x="30" y="10" as="offset" />
          </mxGeometry>
        </mxCell>
        <mxCell id="rmX3EuTgFiDhoVk7WDeN-73" style="edgeStyle=orthogonalEdgeStyle;rounded=0;orthogonalLoop=1;jettySize=auto;html=1;exitX=1;exitY=0.5;exitDx=0;exitDy=0;entryX=0.5;entryY=1;entryDx=0;entryDy=0;dashed=1;startArrow=none;startFill=0;endArrow=classic;endFill=1;fontFamily=Times New Roman;" parent="1" source="ejoTcQP1C6wPcJlGT3Gc-93" target="ejoTcQP1C6wPcJlGT3Gc-18" edge="1">
          <mxGeometry relative="1" as="geometry" />
        </mxCell>
        <mxCell id="rmX3EuTgFiDhoVk7WDeN-74" value="&amp;lt;&amp;lt;extend&amp;gt;&amp;gt;" style="edgeLabel;html=1;align=center;verticalAlign=middle;resizable=0;points=[];fontFamily=Times New Roman;" parent="rmX3EuTgFiDhoVk7WDeN-73" vertex="1" connectable="0">
          <mxGeometry x="-0.21" y="-1" relative="1" as="geometry">
            <mxPoint y="1" as="offset" />
          </mxGeometry>
        </mxCell>
        <mxCell id="ejoTcQP1C6wPcJlGT3Gc-93" value="&lt;font style=&quot;font-size: 18px&quot;&gt;Tìm kiếm khách hàng&lt;/font&gt;" style="ellipse;whiteSpace=wrap;html=1;fillColor=#dae8fc;strokeColor=#6c8ebf;fontFamily=Times New Roman;" parent="1" vertex="1">
          <mxGeometry x="510" y="480" width="130" height="80" as="geometry" />
        </mxCell>
        <mxCell id="rmX3EuTgFiDhoVk7WDeN-12" style="edgeStyle=orthogonalEdgeStyle;rounded=0;orthogonalLoop=1;jettySize=auto;html=1;exitX=1;exitY=0.5;exitDx=0;exitDy=0;dashed=1;endArrow=classic;endFill=1;entryX=0.5;entryY=1;entryDx=0;entryDy=0;fontFamily=Times New Roman;" parent="1" source="rmX3EuTgFiDhoVk7WDeN-2" target="ejoTcQP1C6wPcJlGT3Gc-14" edge="1">
          <mxGeometry relative="1" as="geometry">
            <mxPoint x="1249.9999999999995" y="1070" as="targetPoint" />
          </mxGeometry>
        </mxCell>
        <mxCell id="rmX3EuTgFiDhoVk7WDeN-17" value="&amp;lt;&amp;lt;extend&amp;gt;&amp;gt;" style="edgeLabel;html=1;align=center;verticalAlign=middle;resizable=0;points=[];fontFamily=Times New Roman;" parent="rmX3EuTgFiDhoVk7WDeN-12" vertex="1" connectable="0">
          <mxGeometry x="-0.5826" relative="1" as="geometry">
            <mxPoint as="offset" />
          </mxGeometry>
        </mxCell>
        <mxCell id="rmX3EuTgFiDhoVk7WDeN-2" value="&lt;font style=&quot;font-size: 18px&quot;&gt;Thêm nhân viên&lt;/font&gt;" style="ellipse;whiteSpace=wrap;html=1;fillColor=#dae8fc;strokeColor=#6c8ebf;fontFamily=Times New Roman;" parent="1" vertex="1">
          <mxGeometry x="1030" y="1150" width="120" height="80" as="geometry" />
        </mxCell>
        <mxCell id="rmX3EuTgFiDhoVk7WDeN-10" style="edgeStyle=orthogonalEdgeStyle;rounded=0;orthogonalLoop=1;jettySize=auto;html=1;exitX=1;exitY=0.5;exitDx=0;exitDy=0;dashed=1;endArrow=classic;endFill=1;fontFamily=Times New Roman;" parent="1" source="rmX3EuTgFiDhoVk7WDeN-3" target="ejoTcQP1C6wPcJlGT3Gc-14" edge="1">
          <mxGeometry relative="1" as="geometry">
            <Array as="points">
              <mxPoint x="1150" y="1060" />
            </Array>
          </mxGeometry>
        </mxCell>
        <mxCell id="rmX3EuTgFiDhoVk7WDeN-15" value="&amp;lt;&amp;lt;extend&amp;gt;&amp;gt;" style="edgeLabel;html=1;align=center;verticalAlign=middle;resizable=0;points=[];fontFamily=Times New Roman;" parent="rmX3EuTgFiDhoVk7WDeN-10" vertex="1" connectable="0">
          <mxGeometry x="0.0455" y="-1" relative="1" as="geometry">
            <mxPoint as="offset" />
          </mxGeometry>
        </mxCell>
        <mxCell id="rmX3EuTgFiDhoVk7WDeN-3" value="&lt;font style=&quot;font-size: 18px&quot;&gt;Sửa nhân viên&lt;/font&gt;" style="ellipse;whiteSpace=wrap;html=1;fillColor=#dae8fc;strokeColor=#6c8ebf;fontFamily=Times New Roman;" parent="1" vertex="1">
          <mxGeometry x="1030" y="1010" width="120" height="80" as="geometry" />
        </mxCell>
        <mxCell id="rmX3EuTgFiDhoVk7WDeN-11" style="edgeStyle=orthogonalEdgeStyle;rounded=0;orthogonalLoop=1;jettySize=auto;html=1;exitX=1;exitY=0.5;exitDx=0;exitDy=0;entryX=0;entryY=0.5;entryDx=0;entryDy=0;dashed=1;endArrow=classic;endFill=1;fontFamily=Times New Roman;" parent="1" source="rmX3EuTgFiDhoVk7WDeN-4" target="ejoTcQP1C6wPcJlGT3Gc-14" edge="1">
          <mxGeometry relative="1" as="geometry">
            <Array as="points">
              <mxPoint x="1250" y="1120" />
            </Array>
          </mxGeometry>
        </mxCell>
        <mxCell id="rmX3EuTgFiDhoVk7WDeN-16" value="&amp;lt;&amp;lt;extend&amp;gt;&amp;gt;" style="edgeLabel;html=1;align=center;verticalAlign=middle;resizable=0;points=[];fontFamily=Times New Roman;" parent="rmX3EuTgFiDhoVk7WDeN-11" vertex="1" connectable="0">
          <mxGeometry x="-0.3804" y="-3" relative="1" as="geometry">
            <mxPoint as="offset" />
          </mxGeometry>
        </mxCell>
        <mxCell id="rmX3EuTgFiDhoVk7WDeN-4" value="&lt;font style=&quot;font-size: 18px&quot;&gt;Xóa nhân viên&lt;/font&gt;" style="ellipse;whiteSpace=wrap;html=1;fillColor=#dae8fc;strokeColor=#6c8ebf;fontFamily=Times New Roman;" parent="1" vertex="1">
          <mxGeometry x="930" y="1080" width="120" height="80" as="geometry" />
        </mxCell>
        <mxCell id="rmX3EuTgFiDhoVk7WDeN-8" style="edgeStyle=orthogonalEdgeStyle;rounded=0;orthogonalLoop=1;jettySize=auto;html=1;exitX=1;exitY=0.5;exitDx=0;exitDy=0;endArrow=classic;endFill=1;dashed=1;fontFamily=Times New Roman;" parent="1" source="rmX3EuTgFiDhoVk7WDeN-5" target="ejoTcQP1C6wPcJlGT3Gc-14" edge="1">
          <mxGeometry relative="1" as="geometry" />
        </mxCell>
        <mxCell id="rmX3EuTgFiDhoVk7WDeN-13" value="&amp;lt;&amp;lt;extend&amp;gt;&amp;gt;" style="edgeLabel;html=1;align=center;verticalAlign=middle;resizable=0;points=[];fontFamily=Times New Roman;" parent="rmX3EuTgFiDhoVk7WDeN-8" vertex="1" connectable="0">
          <mxGeometry x="-0.5172" y="-1" relative="1" as="geometry">
            <mxPoint as="offset" />
          </mxGeometry>
        </mxCell>
        <mxCell id="rmX3EuTgFiDhoVk7WDeN-5" value="&lt;font style=&quot;font-size: 18px&quot;&gt;Xem thông tin nhân viên&lt;/font&gt;" style="ellipse;whiteSpace=wrap;html=1;fillColor=#dae8fc;strokeColor=#6c8ebf;fontFamily=Times New Roman;" parent="1" vertex="1">
          <mxGeometry x="1030" y="880" width="120" height="80" as="geometry" />
        </mxCell>
        <mxCell id="rmX3EuTgFiDhoVk7WDeN-9" style="edgeStyle=orthogonalEdgeStyle;rounded=0;orthogonalLoop=1;jettySize=auto;html=1;exitX=1;exitY=0.5;exitDx=0;exitDy=0;entryX=0.5;entryY=0;entryDx=0;entryDy=0;dashed=1;endArrow=classic;endFill=1;fontFamily=Times New Roman;" parent="1" source="rmX3EuTgFiDhoVk7WDeN-6" target="ejoTcQP1C6wPcJlGT3Gc-14" edge="1">
          <mxGeometry relative="1" as="geometry" />
        </mxCell>
        <mxCell id="rmX3EuTgFiDhoVk7WDeN-14" value="&amp;lt;&amp;lt;extend&amp;gt;&amp;gt;" style="edgeLabel;html=1;align=center;verticalAlign=middle;resizable=0;points=[];fontFamily=Times New Roman;" parent="rmX3EuTgFiDhoVk7WDeN-9" vertex="1" connectable="0">
          <mxGeometry x="-0.4612" y="-1" relative="1" as="geometry">
            <mxPoint as="offset" />
          </mxGeometry>
        </mxCell>
        <mxCell id="rmX3EuTgFiDhoVk7WDeN-6" value="&lt;font style=&quot;font-size: 18px&quot;&gt;Tìm kiếm nhân viên&lt;/font&gt;" style="ellipse;whiteSpace=wrap;html=1;fillColor=#dae8fc;strokeColor=#6c8ebf;fontFamily=Times New Roman;" parent="1" vertex="1">
          <mxGeometry x="930" y="945" width="120" height="80" as="geometry" />
        </mxCell>
        <mxCell id="rmX3EuTgFiDhoVk7WDeN-22" style="edgeStyle=orthogonalEdgeStyle;rounded=0;orthogonalLoop=1;jettySize=auto;html=1;exitX=1;exitY=0.5;exitDx=0;exitDy=0;entryX=0.5;entryY=0;entryDx=0;entryDy=0;dashed=1;endArrow=classic;endFill=1;fontFamily=Times New Roman;" parent="1" source="rmX3EuTgFiDhoVk7WDeN-19" target="ejoTcQP1C6wPcJlGT3Gc-20" edge="1">
          <mxGeometry relative="1" as="geometry">
            <Array as="points">
              <mxPoint x="1310" y="1320" />
            </Array>
          </mxGeometry>
        </mxCell>
        <mxCell id="rmX3EuTgFiDhoVk7WDeN-24" value="&amp;lt;&amp;lt;extend&amp;gt;&amp;gt;" style="edgeLabel;html=1;align=center;verticalAlign=middle;resizable=0;points=[];fontFamily=Times New Roman;" parent="rmX3EuTgFiDhoVk7WDeN-22" vertex="1" connectable="0">
          <mxGeometry x="-0.4015" y="3" relative="1" as="geometry">
            <mxPoint x="53.33" y="3" as="offset" />
          </mxGeometry>
        </mxCell>
        <mxCell id="rmX3EuTgFiDhoVk7WDeN-19" value="&lt;font style=&quot;font-size: 18px&quot;&gt;Thống kê doanh thu&lt;/font&gt;" style="ellipse;whiteSpace=wrap;html=1;fillColor=#dae8fc;strokeColor=#6c8ebf;fontFamily=Times New Roman;" parent="1" vertex="1">
          <mxGeometry x="1000" y="1280" width="120" height="80" as="geometry" />
        </mxCell>
        <mxCell id="rmX3EuTgFiDhoVk7WDeN-23" style="edgeStyle=orthogonalEdgeStyle;rounded=0;orthogonalLoop=1;jettySize=auto;html=1;exitX=1;exitY=0.5;exitDx=0;exitDy=0;entryX=0.5;entryY=1;entryDx=0;entryDy=0;dashed=1;endArrow=classic;endFill=1;fontFamily=Times New Roman;" parent="1" source="rmX3EuTgFiDhoVk7WDeN-21" target="ejoTcQP1C6wPcJlGT3Gc-20" edge="1">
          <mxGeometry relative="1" as="geometry">
            <Array as="points">
              <mxPoint x="1310" y="1460" />
            </Array>
          </mxGeometry>
        </mxCell>
        <mxCell id="rmX3EuTgFiDhoVk7WDeN-25" value="&amp;lt;&amp;lt;extend&amp;gt;&amp;gt;" style="edgeLabel;html=1;align=center;verticalAlign=middle;resizable=0;points=[];fontFamily=Times New Roman;" parent="rmX3EuTgFiDhoVk7WDeN-23" vertex="1" connectable="0">
          <mxGeometry x="-0.3168" y="-2" relative="1" as="geometry">
            <mxPoint as="offset" />
          </mxGeometry>
        </mxCell>
        <mxCell id="rmX3EuTgFiDhoVk7WDeN-21" value="&lt;font style=&quot;font-size: 18px&quot;&gt;Thống kê thuốc&lt;/font&gt;" style="ellipse;whiteSpace=wrap;html=1;fillColor=#dae8fc;strokeColor=#6c8ebf;fontFamily=Times New Roman;" parent="1" vertex="1">
          <mxGeometry x="990" y="1420" width="120" height="80" as="geometry" />
        </mxCell>
        <mxCell id="rmX3EuTgFiDhoVk7WDeN-30" style="edgeStyle=orthogonalEdgeStyle;rounded=0;orthogonalLoop=1;jettySize=auto;html=1;exitX=0.5;exitY=0;exitDx=0;exitDy=0;entryX=1;entryY=1;entryDx=0;entryDy=0;endArrow=none;endFill=0;dashed=1;startArrow=classic;startFill=1;fontFamily=Times New Roman;" parent="1" source="rmX3EuTgFiDhoVk7WDeN-29" target="ejoTcQP1C6wPcJlGT3Gc-15" edge="1">
          <mxGeometry relative="1" as="geometry">
            <Array as="points">
              <mxPoint x="760" y="870" />
              <mxPoint x="1292" y="870" />
            </Array>
          </mxGeometry>
        </mxCell>
        <mxCell id="rmX3EuTgFiDhoVk7WDeN-31" value="&amp;lt;&amp;lt;include&amp;gt;&amp;gt;" style="edgeLabel;html=1;align=center;verticalAlign=middle;resizable=0;points=[];fontFamily=Times New Roman;" parent="rmX3EuTgFiDhoVk7WDeN-30" vertex="1" connectable="0">
          <mxGeometry x="-0.1339" y="-3" relative="1" as="geometry">
            <mxPoint x="-1" as="offset" />
          </mxGeometry>
        </mxCell>
        <mxCell id="rmX3EuTgFiDhoVk7WDeN-35" style="edgeStyle=orthogonalEdgeStyle;rounded=0;orthogonalLoop=1;jettySize=auto;html=1;exitX=0.5;exitY=1;exitDx=0;exitDy=0;entryX=1;entryY=1;entryDx=0;entryDy=0;dashed=1;startArrow=classic;startFill=1;endArrow=none;endFill=0;fontFamily=Times New Roman;" parent="1" source="rmX3EuTgFiDhoVk7WDeN-29" target="ejoTcQP1C6wPcJlGT3Gc-14" edge="1">
          <mxGeometry relative="1" as="geometry">
            <Array as="points">
              <mxPoint x="760" y="1260" />
              <mxPoint x="1352" y="1260" />
            </Array>
          </mxGeometry>
        </mxCell>
        <mxCell id="rmX3EuTgFiDhoVk7WDeN-36" value="&amp;lt;&amp;lt;include&amp;gt;&amp;gt;" style="edgeLabel;html=1;align=center;verticalAlign=middle;resizable=0;points=[];fontFamily=Times New Roman;" parent="rmX3EuTgFiDhoVk7WDeN-35" vertex="1" connectable="0">
          <mxGeometry x="-0.2103" y="-3" relative="1" as="geometry">
            <mxPoint x="-1" as="offset" />
          </mxGeometry>
        </mxCell>
        <mxCell id="rmX3EuTgFiDhoVk7WDeN-37" style="edgeStyle=orthogonalEdgeStyle;rounded=0;orthogonalLoop=1;jettySize=auto;html=1;exitX=0;exitY=1;exitDx=0;exitDy=0;entryX=0;entryY=0.5;entryDx=0;entryDy=0;dashed=1;startArrow=classic;startFill=1;endArrow=none;endFill=0;fontFamily=Times New Roman;" parent="1" source="rmX3EuTgFiDhoVk7WDeN-29" target="ejoTcQP1C6wPcJlGT3Gc-20" edge="1">
          <mxGeometry relative="1" as="geometry">
            <Array as="points">
              <mxPoint x="718" y="1390" />
            </Array>
          </mxGeometry>
        </mxCell>
        <mxCell id="rmX3EuTgFiDhoVk7WDeN-38" value="&amp;lt;&amp;lt;include&amp;gt;&amp;gt;" style="edgeLabel;html=1;align=center;verticalAlign=middle;resizable=0;points=[];fontFamily=Times New Roman;" parent="rmX3EuTgFiDhoVk7WDeN-37" vertex="1" connectable="0">
          <mxGeometry x="-0.2766" y="122" relative="1" as="geometry">
            <mxPoint y="45.080000000000005" as="offset" />
          </mxGeometry>
        </mxCell>
        <mxCell id="rmX3EuTgFiDhoVk7WDeN-29" value="&lt;font style=&quot;font-size: 18px&quot;&gt;Đăng nhập&lt;/font&gt;" style="ellipse;whiteSpace=wrap;html=1;fillColor=#f8cecc;strokeColor=#b85450;fontFamily=Times New Roman;" parent="1" vertex="1">
          <mxGeometry x="700" y="950" width="120" height="80" as="geometry" />
        </mxCell>
        <mxCell id="rmX3EuTgFiDhoVk7WDeN-53" style="rounded=0;orthogonalLoop=1;jettySize=auto;html=1;exitX=0;exitY=0.5;exitDx=0;exitDy=0;entryX=1;entryY=0.5;entryDx=0;entryDy=0;startArrow=none;startFill=0;endArrow=classic;endFill=1;fontFamily=Times New Roman;dashed=1;edgeStyle=orthogonalEdgeStyle;" parent="1" source="rmX3EuTgFiDhoVk7WDeN-41" target="ejoTcQP1C6wPcJlGT3Gc-8" edge="1">
          <mxGeometry relative="1" as="geometry">
            <Array as="points">
              <mxPoint x="414" y="120" />
            </Array>
          </mxGeometry>
        </mxCell>
        <mxCell id="rmX3EuTgFiDhoVk7WDeN-55" value="&amp;lt;&amp;lt;extend&amp;gt;&amp;gt;" style="edgeLabel;html=1;align=center;verticalAlign=middle;resizable=0;points=[];fontFamily=Times New Roman;" parent="rmX3EuTgFiDhoVk7WDeN-53" vertex="1" connectable="0">
          <mxGeometry x="-0.3239" relative="1" as="geometry">
            <mxPoint x="19.17" as="offset" />
          </mxGeometry>
        </mxCell>
        <mxCell id="rmX3EuTgFiDhoVk7WDeN-41" value="&lt;font style=&quot;font-size: 18px&quot;&gt;Xem hóa đơn&lt;/font&gt;" style="ellipse;whiteSpace=wrap;html=1;fillColor=#dae8fc;strokeColor=#6c8ebf;fontFamily=Times New Roman;" parent="1" vertex="1">
          <mxGeometry x="490" y="80" width="120" height="80" as="geometry" />
        </mxCell>
        <mxCell id="rmX3EuTgFiDhoVk7WDeN-54" style="edgeStyle=none;rounded=0;orthogonalLoop=1;jettySize=auto;html=1;exitX=0;exitY=0.5;exitDx=0;exitDy=0;entryX=1;entryY=0.5;entryDx=0;entryDy=0;dashed=1;startArrow=none;startFill=0;endArrow=classic;endFill=1;fontFamily=Times New Roman;" parent="1" source="rmX3EuTgFiDhoVk7WDeN-42" target="ejoTcQP1C6wPcJlGT3Gc-8" edge="1">
          <mxGeometry relative="1" as="geometry" />
        </mxCell>
        <mxCell id="rmX3EuTgFiDhoVk7WDeN-56" value="&amp;lt;&amp;lt;extend&amp;gt;&amp;gt;" style="edgeLabel;html=1;align=center;verticalAlign=middle;resizable=0;points=[];fontFamily=Times New Roman;" parent="rmX3EuTgFiDhoVk7WDeN-54" vertex="1" connectable="0">
          <mxGeometry x="0.2368" y="-2" relative="1" as="geometry">
            <mxPoint x="13.33" y="2" as="offset" />
          </mxGeometry>
        </mxCell>
        <mxCell id="rmX3EuTgFiDhoVk7WDeN-42" value="&lt;font style=&quot;font-size: 18px&quot;&gt;Tìm kiếm hóa đơn&lt;/font&gt;" style="ellipse;whiteSpace=wrap;html=1;fillColor=#dae8fc;strokeColor=#6c8ebf;fontFamily=Times New Roman;" parent="1" vertex="1">
          <mxGeometry x="500" y="180" width="120" height="80" as="geometry" />
        </mxCell>
        <mxCell id="rmX3EuTgFiDhoVk7WDeN-78" value="&lt;font size=&quot;3&quot;&gt;Thanh toán&lt;/font&gt;" style="ellipse;whiteSpace=wrap;html=1;fontFamily=Times New Roman;fillColor=#dae8fc;strokeColor=#6c8ebf;" parent="1" vertex="1">
          <mxGeometry x="707" y="460" width="120" height="80" as="geometry" />
        </mxCell>
        <mxCell id="PFeNby8rjZ6YVjOQg9s7-3" style="edgeStyle=orthogonalEdgeStyle;rounded=0;orthogonalLoop=1;jettySize=auto;html=1;exitX=1;exitY=0.5;exitDx=0;exitDy=0;endArrow=block;endFill=0;dashed=1;" edge="1" parent="1" source="PFeNby8rjZ6YVjOQg9s7-2" target="ejoTcQP1C6wPcJlGT3Gc-15">
          <mxGeometry relative="1" as="geometry" />
        </mxCell>
        <mxCell id="PFeNby8rjZ6YVjOQg9s7-4" value="&amp;lt;&amp;lt;extend&amp;gt;&amp;gt;" style="edgeLabel;html=1;align=center;verticalAlign=middle;resizable=0;points=[];" vertex="1" connectable="0" parent="PFeNby8rjZ6YVjOQg9s7-3">
          <mxGeometry x="-0.5787" y="2" relative="1" as="geometry">
            <mxPoint as="offset" />
          </mxGeometry>
        </mxCell>
        <mxCell id="PFeNby8rjZ6YVjOQg9s7-2" value="&lt;font face=&quot;Times New Roman&quot; style=&quot;font-size: 18px&quot;&gt;Tìm kiếm nhà cung cấp&lt;/font&gt;" style="ellipse;whiteSpace=wrap;html=1;fillColor=#dae8fc;strokeColor=#6c8ebf;" vertex="1" parent="1">
          <mxGeometry x="880" y="750" width="120" height="80" as="geometry" />
        </mxCell>
        <mxCell id="PFeNby8rjZ6YVjOQg9s7-6" style="edgeStyle=orthogonalEdgeStyle;rounded=0;orthogonalLoop=1;jettySize=auto;html=1;exitX=1;exitY=0.5;exitDx=0;exitDy=0;entryX=0.5;entryY=0;entryDx=0;entryDy=0;dashed=1;endArrow=block;endFill=0;" edge="1" parent="1" source="PFeNby8rjZ6YVjOQg9s7-5" target="ejoTcQP1C6wPcJlGT3Gc-16">
          <mxGeometry relative="1" as="geometry" />
        </mxCell>
        <mxCell id="PFeNby8rjZ6YVjOQg9s7-7" value="&amp;lt;&amp;lt;extend&amp;gt;&amp;gt;" style="edgeLabel;html=1;align=center;verticalAlign=middle;resizable=0;points=[];" vertex="1" connectable="0" parent="PFeNby8rjZ6YVjOQg9s7-6">
          <mxGeometry x="-0.6797" relative="1" as="geometry">
            <mxPoint as="offset" />
          </mxGeometry>
        </mxCell>
        <mxCell id="PFeNby8rjZ6YVjOQg9s7-5" value="&lt;font style=&quot;font-size: 18px&quot; face=&quot;Times New Roman&quot;&gt;Nhập thuốc&lt;/font&gt;" style="ellipse;whiteSpace=wrap;html=1;fillColor=#dae8fc;strokeColor=#6c8ebf;" vertex="1" parent="1">
          <mxGeometry x="810" y="20" width="120" height="80" as="geometry" />
        </mxCell>
      </root>
    </mxGraphModel>
  </diagram>
</mxfile>
